PathFileType        4      (X/Y/Z)      C:\Users\pc\Desktop\IMUTRC\Sujet_03\Sujet_03_Tpose.trc         
DataRate	CameraRate	NumFrames	NumMarkers	Units	OrigDataRate	OrigDataStartFrame	OrigNumFrames
60.0	60.0	4	64	mm	60.0	77	123
Frame#	Time	pHipOrigin			pRightASI			pLeftASI			pRightCSI			pLeftCSI			pRightIschialTub			pLeftIschialTub			pSacrum			pL5SpinalProcess			pL3SpinalProcess			pT12SpinalProcess			pIJ			pT4SpinalProcess			pT8SpinalProcess			pPX			pC7SpinalProcess			pTopOfHead			pRightAuricularis			pLeftAuricularis			pBackOfHead			pRightAcromion			pLeftAcromion			pRightArmLatEpicondyle			pRightArmMedEpicondyle			pLeftArmLatEpicondyle			pLeftArmMedEpicondyle			pRightUlnarStyloid			pRightRadialStyloid			pRightOlecranon			pLeftUlnarStyloid			pLeftRadialStyloid			pLeftOlecranon			pRightTopOfHand			pRightPinky			pRightBallHand			pLeftTopOfHand			pLeftPinky			pLeftBallHand			pRightGreaterTrochanter			pRightKneeLatEpicondyle			pRightKneeMedEpicondyle			pRightPatella			pLeftGreaterTrochanter			pLeftKneeLatEpicondyle			pLeftKneeMedEpicondyle			pLeftPatella			pRightTibialTub			pRightLatMalleolus			pRightMedMalleolus			pLeftTibialTub			pLeftLatMalleolus			pLeftMedMalleolus			pRightHeelFoot			pRightFirstMetatarsal			pRightFifthMetatarsal			pRightPivotFoot			pRightHeelCenter			pRightToe			pLeftHeelFoot			pLeftFirstMetatarsal			pLeftFifthMetatarsal			pLeftPivotFoot			pLeftHeelCenter			pLeftToe			
		X1	Y1	Z1	X2	Y2	Z2	X3	Y3	Z3	X4	Y4	Z4	X5	Y5	Z5	X6	Y6	Z6	X7	Y7	Z7	X8	Y8	Z8	X9	Y9	Z9	X10	Y10	Z10	X11	Y11	Z11	X12	Y12	Z12	X13	Y13	Z13	X14	Y14	Z14	X15	Y15	Z15	X16	Y16	Z16	X17	Y17	Z17	X18	Y18	Z18	X19	Y19	Z19	X20	Y20	Z20	X21	Y21	Z21	X22	Y22	Z22	X23	Y23	Z23	X24	Y24	Z24	X25	Y25	Z25	X26	Y26	Z26	X27	Y27	Z27	X28	Y28	Z28	X29	Y29	Z29	X30	Y30	Z30	X31	Y31	Z31	X32	Y32	Z32	X33	Y33	Z33	X34	Y34	Z34	X35	Y35	Z35	X36	Y36	Z36	X37	Y37	Z37	X38	Y38	Z38	X39	Y39	Z39	X40	Y40	Z40	X41	Y41	Z41	X42	Y42	Z42	X43	Y43	Z43	X44	Y44	Z44	X45	Y45	Z45	X46	Y46	Z46	X47	Y47	Z47	X48	Y48	Z48	X49	Y49	Z49	X50	Y50	Z50	X51	Y51	Z51	X52	Y52	Z52	X53	Y53	Z53	X54	Y54	Z54	X55	Y55	Z55	X56	Y56	Z56	X57	Y57	Z57	X58	Y58	Z58	X59	Y59	Z59	X60	Y60	Z60	X61	Y61	Z61	X62	Y62	Z62	X63	Y63	Z63	X64	Y64	Z64	
77	1.267	-383.38058	985.0743	-766.3026399999999	-300.10177	1083.31235	-635.7961999999999	-323.25706	1082.79652	-909.3037699999999	-344.52095	1153.00749	-656.2003699999999	-363.60688	1152.60629	-881.9644699999999	-437.31407	929.70793	-704.7462399999998	-446.88569	929.47867	-817.6569499999999	-450.20996	1009.31858	-760.6857599999998	-410.77719	1100.85077	-764.2966099999999	-394.27044	1216.16871	-764.9270799999999	-390.25839	1322.43087	-764.1819799999998	-214.58766	1534.38204	-774.2121199999999	-374.43943	1523.32023	-762.3478999999999	-386.99143	1428.69303	-762.9783599999998	-226.39457	1404.50607	-775.4730499999998	-365.44096	1578.97318	-760.5138099999999	-274.0234	1833.10825	-765.0990199999999	-268.57847	1728.62285	-696.8367599999999	-299.87251	1734.81288	-837.6599099999999	-339.30528	1737.04817	-754.7823099999999	-337.70046	1557.36539	-549.2504199999998	-378.73806	1578.80123	-970.7455299999999	-269.20894	1486.6959	-306.6356899999999	-212.12312	1477.35354	-324.63261999999986	-404.41521	1493.1725	-1224.13551	-344.23438	1486.23737	-1225.33912	-139.21833	1438.15002	-83.16417999999992	-171.31478	1476.72307	-63.677059999999905	-228.97375	1463.76986	-330.9372799999999	-387.67921	1437.17567	-1476.72307	-430.49358	1469.616	-1479.64614	-354.72304	1474.71704	-1216.68455	-115.37526	1442.33402	133.42951000000008	-96.23202	1422.78958	37.19749000000009	-122.42501	1450.53008	-36.223129999999905	-362.9191	1462.16504	-1683.97441	-343.03076	1438.66586	-1588.77406	-375.70036	1455.11529	-1514.60834	-361.83011	951.48767	-602.8400299999998	-398.51176	541.28363	-630.8671	-413.58563	541.74215	-709.44608	-362.5752	541.28363	-681.18974	-402.12261	950.7425700000001	-930.0518299999999	-435.42267	541.39826	-888.44108	-424.36086	542.25798	-809.23163	-385.21466	540.76779	-852.38989	-350.71098	500.70455000000004	-683.76892	-435.47999	89.81273000000004	-635.33768	-448.20394	90.09931000000005	-700.96345	-372.31877	501.90817000000004	-853.88008	-459.89621	89.06764000000005	-871.4185	-450.61117	89.69810000000004	-805.16226	-477.66389	0.05732000000004039	-659.52464	-320.16204	6.304660000000045	-730.65266	-304.62966	7.79485000000004	-650.46886	-289.89968	7.966800000000043	-696.09166	-438.23111	2.6364900000000406	-667.20486	-207.93912	11.291070000000044	-712.02526	-492.62312	-0.05731999999994908	-831.69915	-320.16204	4.871780000000051	-820.35076	-333.63109	4.585210000000055	-900.87845	-303.88456	5.387620000000053	-863.33707	-452.96109	2.0060300000000515	-838.3477	-221.52279	7.622910000000053	-877.15001	
78	1.283	-383.32326	985.0743	-766.3026399999999	-299.98714	1083.31235	-635.8535099999999	-323.19974	1082.79652	-909.3610799999999	-344.40632	1153.00749	-656.2576799999999	-363.54956	1152.60629	-882.0217899999999	-437.19944	929.70793	-704.8035599999998	-446.82837	929.47867	-817.6569499999999	-450.09533	1009.31858	-760.6857599999998	-410.71987	1100.85077	-764.2966099999999	-394.15581	1216.16871	-764.9270799999999	-390.14376	1322.43087	-764.2392899999999	-214.41572	1534.32473	-774.3267499999998	-374.26748	1523.32023	-762.4625299999999	-386.8768	1428.69303	-763.0356799999998	-226.22263	1404.44875	-775.5876799999999	-365.26901	1578.97318	-760.6284399999998	-273.85146	1833.10825	-765.2136499999999	-268.34921	1728.62285	-696.9513899999998	-299.70056	1734.75557	-837.7745399999999	-339.13334	1736.99086	-754.8969399999999	-337.4712	1557.42271	-549.3077399999999	-378.56611	1578.80123	-970.8601599999998	-268.97968	1486.6959	-306.7503199999999	-211.89386	1477.41085	-324.7472499999999	-404.3579	1493.11518	-1224.19282	-344.11975	1486.18006	-1225.39644	-138.93176	1438.20734	-83.22149999999992	-171.0282	1476.78039	-63.79168999999991	-228.74449	1463.76986	-330.9945899999999	-387.6219	1437.00372	-1476.78039	-430.49358	1469.44406	-1479.70346	-354.60841	1474.60241	-1216.79918	-115.03137	1442.44865	133.31488000000007	-96.00276	1422.90421	37.14017000000008	-122.13844	1450.58739	-36.33775999999991	-362.97641	1461.87847	-1684.03172	-343.08808	1438.37928	-1588.88869	-375.70036	1454.94334	-1514.66566	-361.77279	951.48767	-602.8400299999998	-398.45445	541.28363	-630.8671	-413.52831	541.74215	-709.44608	-362.51789	541.28363	-681.18974	-402.0653	950.7425700000001	-930.0518299999999	-435.42267	541.39826	-888.49839	-424.30355	542.25798	-809.23163	-385.15735	540.76779	-852.38989	-350.65367	500.70455000000004	-683.76892	-435.47999	89.81273000000004	-635.33768	-448.20394	90.09931000000005	-700.96345	-372.31877	501.90817000000004	-853.88008	-459.89621	89.06764000000005	-871.36118	-450.61117	89.69810000000004	-805.16226	-477.66389	0.05732000000004039	-659.52464	-320.16204	6.304660000000045	-730.65266	-304.62966	7.79485000000004	-650.46886	-289.89968	7.966800000000043	-696.09166	-438.23111	2.6364900000000406	-667.20486	-207.93912	11.291070000000044	-712.02526	-492.62312	5.092688509505372E-14	-831.69915	-320.16204	4.871780000000051	-820.35076	-333.63109	4.585210000000055	-900.87845	-303.88456	5.387620000000053	-863.33707	-452.96109	2.0060300000000515	-838.3477	-221.52279	7.622910000000053	-877.15001	
79	1.3	-383.20863	985.0743	-766.3599499999999	-299.81519	1083.31235	-635.9108299999999	-323.14243	1082.79652	-909.3610799999999	-344.23438	1153.00749	-656.2576799999999	-363.49225	1152.60629	-882.0217899999999	-437.14213	929.70793	-704.8035599999998	-446.71374	929.47867	-817.6569499999999	-450.03802	1009.31858	-760.6857599999998	-410.60524	1100.85077	-764.2966099999999	-394.0985	1216.1114	-764.9843899999998	-390.02913	1322.43087	-764.2966099999999	-214.24377	1534.26741	-774.4413799999999	-374.09554	1523.32023	-762.5198399999999	-386.70485	1428.69303	-763.0929899999999	-226.108	1404.39144	-775.6449999999999	-365.09707	1578.97318	-760.6857599999998	-273.67951	1833.05093	-765.3855999999998	-268.17727	1728.62285	-697.1233299999999	-299.52862	1734.75557	-837.8891699999999	-338.90408	1736.99086	-755.0115699999999	-337.29925	1557.42271	-549.4223699999999	-378.39417	1578.74392	-970.9747899999999	-268.75042	1486.75321	-306.8076299999999	-211.6646	1477.41085	-324.86187999999987	-404.24327	1493.05787	-1224.25014	-344.06243	1486.12274	-1225.51107	-138.75981	1438.26465	-83.33612999999991	-170.79894	1476.8377	-63.90631999999991	-228.57254	1463.82718	-331.1092299999999	-387.6219	1436.83177	-1476.8377	-430.49358	1469.27211	-1479.76077	-354.49378	1474.5451	-1216.85649	-114.80211	1442.50597	133.2575600000001	-95.71619	1422.96152	37.025540000000085	-121.90918	1450.64471	-36.39507999999991	-363.03373	1461.59189	-1684.08904	-343.08808	1438.15002	-1588.946	-375.70036	1454.7714	-1514.72297	-361.65816	951.43035	-602.8973399999999	-398.45445	541.28363	-630.8671	-413.471	541.74215	-709.44608	-362.46057	541.28363	-681.18974	-402.00798	950.7425700000001	-930.1091399999999	-435.36536	541.39826	-888.49839	-424.30355	542.25798	-809.28895	-385.10003	540.76779	-852.44721	-350.65367	500.70455000000004	-683.76892	-435.47999	89.81273000000004	-635.33768	-448.20394	90.09931000000005	-700.96345	-372.26145	501.90817000000004	-853.88008	-459.89621	89.06764000000005	-871.36118	-450.61117	89.69810000000004	-805.16226	-477.66389	0.05732000000004039	-659.52464	-320.16204	6.247340000000045	-730.65266	-304.62966	7.79485000000004	-650.46886	-289.89968	7.966800000000043	-696.09166	-438.23111	2.6364900000000406	-667.20486	-207.93912	11.291070000000044	-712.02526	-492.62312	5.092688509505372E-14	-831.69915	-320.16204	4.871780000000051	-820.35076	-333.63109	4.585210000000055	-900.87845	-303.88456	5.387620000000053	-863.33707	-452.96109	2.0060300000000515	-838.3477	-221.52279	7.622910000000053	-877.15001	
80	1.317	-383.094	985.01699	-766.3599499999999	-299.70056	1083.31235	-635.9681399999998	-323.08511	1082.79652	-909.4183999999999	-344.11975	1153.00749	-656.3149999999999	-363.43493	1152.60629	-882.0790999999999	-437.0275	929.70793	-704.8035599999998	-446.65643	929.47867	-817.7142699999999	-449.92339	1009.31858	-760.6857599999998	-410.49061	1100.85077	-764.3539199999999	-393.92655	1216.1114	-765.0417099999999	-389.85718	1322.37356	-764.3539199999999	-214.07183	1534.26741	-774.4986899999999	-373.92359	1523.32023	-762.5771599999999	-386.53291	1428.69303	-763.2076199999999	-225.93605	1404.33412	-775.7023099999999	-364.86781	1578.97318	-760.8003899999999	-273.45025	1833.05093	-765.5002299999999	-267.94801	1728.62285	-697.1806499999999	-299.35667	1734.69825	-838.0037999999998	-338.73213	1736.99086	-755.1261999999999	-337.06999	1557.42271	-549.5369999999999	-378.27954	1578.74392	-971.0321099999999	-268.57847	1486.75321	-306.9222599999999	-211.43534	1477.41085	-324.9765099999999	-404.12864	1493.00055	-1224.36477	-343.9478	1486.06543	-1225.56838	-138.53055	1438.26465	-83.39343999999991	-170.627	1476.8377	-63.96362999999991	-228.34328	1463.82718	-331.1665399999999	-387.6219	1436.71714	-1476.89502	-430.43626	1469.2148	-1479.76077	-354.37915	1474.48778	-1216.91381	-114.63016	1442.50597	133.1429300000001	-95.54424	1422.96152	36.91091000000009	-121.73723	1450.64471	-36.509709999999906	-363.09104	1461.47726	-1684.20367	-343.08808	1438.03539	-1589.00332	-375.70036	1454.65676	-1514.78029	-361.54353	951.43035	-602.8973399999999	-398.39713	541.22631	-630.92442	-413.471	541.74215	-709.44608	-362.40326	541.28363	-681.24706	-401.95067	950.6852500000001	-930.1091399999999	-435.36536	541.39826	-888.49839	-424.24623	542.25798	-809.28895	-385.10003	540.76779	-852.44721	-350.59635	500.70455000000004	-683.76892	-435.47999	89.81273000000004	-635.33768	-448.20394	90.09931000000005	-700.96345	-372.26145	501.85085000000004	-853.9374	-459.89621	89.06764000000005	-871.36118	-450.61117	89.69810000000004	-805.16226	-477.66389	0.05732000000004039	-659.52464	-320.16204	6.247340000000045	-730.65266	-304.62966	7.79485000000004	-650.52617	-289.89968	7.966800000000043	-696.09166	-438.23111	2.6364900000000406	-667.20486	-207.99643	11.291070000000044	-712.02526	-492.62312	5.092688509505372E-14	-831.69915	-320.16204	4.871780000000051	-820.35076	-333.63109	4.585210000000055	-900.87845	-303.88456	5.387620000000053	-863.33707	-452.96109	2.0060300000000515	-838.3477	-221.52279	7.622910000000053	-877.15001	
